{"title":"Son.of.Saul.2015.BRRip.480p.x264.AAC-VYTO [P2PDL]","uid":14462901,"size":429563888,"categoryP":"video","categoryS":"movies","magnet":"?xt=urn:btih:e0dd496848ca67583a36167d7776d0dc099868e3&amp;dn=Son.of.Saul.2015.BRRip.480p.x264.AAC-VYTO+%5BP2PDL%5D&amp;tr=udp%3A%2F%2Ftracker.leechers-paradise.org%3A6969&amp;tr=udp%3A%2F%2Fzer0day.ch%3A1337&amp;tr=udp%3A%2F%2Fopen.demonii.com%3A1337&amp;tr=udp%3A%2F%2Ftracker.coppersurfer.tk%3A6969&amp;tr=udp%3A%2F%2Fexodus.desync.com%3A6969","seeders":2,"leechers":3,"uploader":"VYTOP2PDL","files":7,"time":1461827612,"description":"____    ____ ____    ____ .___________.  ______   \r\n     /   /      /   / |           | /  __    \r\n    /   /      /   /  `---|  |----`|  |  |  | \r\n        /     _    _/       |  |     |  |  |  | \r\n       /        |  |         |  |     |  `--'  | \r\n    __/         |__|         |__|      ______/  \r\n                                                  \r\nPresenting Small Encodes with quality for years!\r\n                                                                                                   \r\n                                                                                                   \r\n\r\n\r\nSon.of.Saul.2015.BRRip.480p.x264.AAC-VYTO\r\n\r\n\r\nGenre: Drama, Thriller, War  \nhttp://www.imdb.com/title/tt3808342/\r\n\r\n\r\nFormat                                   : MPEG-4\r\nFile size                                : 401 MiB\r\nDuration                                 : 1h 47mn\r\nOverall bit rate                         : 524 Kbps\r\n\r\nVideo\r\nFormat                                   : AVC\r\nDuration                                 : 1h 47mn\r\nBit rate                                 : 481 Kbps\r\nWidth                                    : 720 pixels\r\nHeight                                   : 528 pixels\r\nDisplay aspect ratio                     : 4:3\r\nFrame rate mode                          : Constant\r\nFrame rate                               : 23.976 (24000/1001) fps\r\nBit depth                                : 8 bits\r\nStream size                              : 368 MiB (92%)\r\nWriting library                          : x264 \r\n\r\nAudio\r\nFormat                                   : AAC\r\nBit rate mode                            : Variable\r\nBit rate                                 : 39.8 Kbps\r\nChannel(s)                               : 2 channels\r\nChannel positions                        : Front: L R\r\nSampling rate                            : 48.0 KHz \r\nStream size                              : 30.5 MiB (8%)\r\nLanguage                                 : Hungarian\r\n\r\nSubtitle                                 : Yes (English)\r\n\r\nScreen Shots: (Click links to view)\r\n \nhttps://ititli.com/Xxs \nhttps://ititli.com/XxY \nhttps://ititli.com/Xx4 \nhttps://ititli.com/XxK \nhttps://ititli.com/XxV \nhttps://ititli.com/Xxt \nhttps://ititli.com/XxL \nhttps://ititli.com/Xxd \nhttps://ititli.com/Xx0\r\n\r\n----------------------------------------------------------------------------------------------------\r\n\r\n\r\n\r\nLooking For Early Access To Anything You Can Provide WEBDL, DVDScr, DVDR, BluRay,\r\nDirect Audio, Music Releases and Seedboxes. If You Got anything to offer please contact us.\r\n\r\nSupport us by donating BC - 1FgwdzPsd1y25Gea8wP1qni35uGCtmkRCD\r\n\r\nFind us and join us!","torrent":{"xt":"urn:btih:e0dd496848ca67583a36167d7776d0dc099868e3","amp;dn":"Son.of.Saul.2015.BRRip.480p.x264.AAC-VYTO+%5BP2PDL%5D","amp;tr":["udp%3A%2F%2Ftracker.leechers-paradise.org%3A6969","udp%3A%2F%2Fzer0day.ch%3A1337","udp%3A%2F%2Fopen.demonii.com%3A1337","udp%3A%2F%2Ftracker.coppersurfer.tk%3A6969","udp%3A%2F%2Fexodus.desync.com%3A6969"],"infoHash":"e0dd496848ca67583a36167d7776d0dc099868e3","infoHashBuffer":{"type":"Buffer","data":[224,221,73,104,72,202,103,88,58,54,22,125,119,118,208,220,9,152,104,227]},"announce":[],"urlList":[]}}